<svg width="108" height="31" viewBox="0 0 108 31" fill="none" xmlns="http://www.w3.org/2000/svg">
<path d="M0 12.0992V14.519H2.31069V12.0992H0Z" fill="white"/>
<path d="M10.949 4.25489C9.48224 4.25489 8.29677 4.92034 7.55332 5.88828H7.47295V0H5.56414V14.519H7.47295V9.53821C7.47295 7.54184 8.71872 6.1101 10.5472 6.1101C12.2752 6.1101 13.2798 7.40068 13.2798 9.13489V14.519H15.1887V8.79209C15.1887 6.02943 13.4807 4.25489 10.949 4.25489Z" fill="white"/>
<path d="M25.023 4.53723H20.5022V1.00829H18.5934V4.53723H16.785V6.39244H18.5934V12.0186C18.5934 13.6318 19.4975 14.5191 21.1251 14.5191H25.023V12.6437H21.5069C20.8639 12.6437 20.5022 12.2807 20.5022 11.6556V6.39244H25.023V4.53723Z" fill="white"/>
<path d="M38.6588 4.27505C37.1316 4.27505 35.9664 5.02116 35.3234 6.21092H35.2631C34.6804 5.04134 33.5954 4.27505 32.1086 4.27505C30.7824 4.27505 29.7777 4.98083 29.175 5.96895H29.0946V4.5372H27.2662V14.519H29.175V9.39705C29.175 7.52166 30.1594 6.15043 31.6464 6.1101C33.0528 6.06977 33.8767 7.07804 33.8767 8.59043V14.519H35.7855V9.23572C35.7855 6.99737 37.1117 6.1101 38.257 6.1101C39.6434 6.1101 40.4673 7.07804 40.4673 8.59043V14.519H42.3759V8.38878C42.3759 5.96894 41.0096 4.27505 38.6588 4.27505Z" fill="white"/>
<path d="M44.9629 11.9379C44.9629 13.5713 45.8872 14.519 47.595 14.519H49.4837V12.6638H47.8763C47.2333 12.6638 46.8715 12.3008 46.8715 11.6757V0H44.9629V11.9379Z" fill="white"/>
<path d="M27.1737 18.511H27.0933C26.3485 17.5086 25.1409 16.807 23.5305 16.787C20.5715 16.7469 18.4579 18.932 18.4579 22.0192C18.4579 25.1265 20.6117 27.3116 23.5104 27.2715C25.1608 27.2514 26.3485 26.5097 27.0933 25.4471H27.1737V26.9907H29.066V17.0676H27.1737V18.511ZM23.7921 25.4272C21.6987 25.4272 20.3702 23.9035 20.3702 22.0192C20.3702 20.1348 21.6987 18.6112 23.7921 18.6112C25.8251 18.6112 27.1538 20.1348 27.1538 22.0192C27.1538 23.8836 25.8251 25.4272 23.7921 25.4272Z" fill="white"/>
<path d="M41.5618 20.676C41.0988 18.4307 39.1061 16.7869 36.4894 16.7869C33.3292 16.7869 31.2156 19.0923 31.2156 22.0191C31.2156 24.9459 33.3292 27.2715 36.4894 27.2715C39.1061 27.2715 41.0988 25.5875 41.5618 23.3222H39.5691C39.1666 24.5852 37.9789 25.4471 36.5095 25.4471C34.4563 25.4471 33.1277 23.9035 33.1277 22.0191C33.1277 20.1347 34.4563 18.6112 36.5095 18.6112C38.0392 18.6112 39.1666 19.5133 39.5691 20.676H41.5618Z" fill="white"/>
<path d="M51.7847 18.511H51.7043C50.9595 17.5086 49.7517 16.807 48.1413 16.787C45.1824 16.7469 43.0688 18.932 43.0688 22.0192C43.0688 25.1265 45.2227 27.3116 48.1211 27.2715C49.7718 27.2514 50.9595 26.5097 51.7043 25.4471H51.7847V26.9907H53.6768V17.0676H51.7847V18.511ZM48.4031 25.4272C46.3095 25.4272 44.9811 23.9035 44.9811 22.0192C44.9811 20.1348 46.3095 18.6112 48.4031 18.6112C50.4361 18.6112 51.7645 20.1348 51.7645 22.0192C51.7645 23.8836 50.4361 25.4272 48.4031 25.4272Z" fill="white"/>
<path d="M64.5422 18.6111H64.4618C63.717 17.5486 62.4688 16.8069 60.8786 16.7869C57.9802 16.7468 55.8263 18.9319 55.8263 22.0391C55.8263 25.1264 57.9399 27.3115 60.8988 27.2715C62.4688 27.2513 63.717 26.5497 64.4416 25.5474H64.5422V26.9906H66.4343V12.557H64.5422V18.6111ZM61.1606 25.447C59.067 25.447 57.7386 23.9236 57.7386 22.0391C57.7386 20.1547 59.067 18.6312 61.1606 18.6312C63.1937 18.6312 64.5221 20.1748 64.5221 22.0391C64.5221 23.9236 63.1937 25.447 61.1606 25.447Z" fill="white"/>
<path d="M73.6387 16.7869C70.5791 16.7869 68.4855 19.1324 68.4855 22.0392C68.4855 24.8658 70.4583 27.2715 73.6788 27.2715C76.0138 27.2715 77.8859 26.0085 78.5502 23.9035H76.5573C76.1146 24.8458 75.0478 25.4471 73.7595 25.4471C71.9479 25.4471 70.6596 24.2443 70.5186 22.7007H78.7515C79.0131 19.393 76.9399 16.7869 73.6387 16.7869ZM73.5983 18.6112C75.1885 18.6112 76.3762 19.5935 76.6781 21.0168H70.5589C70.8407 19.6135 72.0283 18.6112 73.5983 18.6112Z" fill="white"/>
<path d="M92.3175 16.807C90.7878 16.807 89.6204 17.5487 88.9762 18.7314H88.9157C88.3321 17.5687 87.2451 16.807 85.7555 16.807C84.4271 16.807 83.4205 17.5086 82.8167 18.4909H82.7363V17.0676H80.9045V26.9907H82.8167V21.8988C82.8167 20.0345 83.8031 18.6713 85.2927 18.6312C86.7015 18.5911 87.527 19.5935 87.527 21.097V26.9907H89.4393V21.7385C89.4393 19.5133 90.7677 18.6312 91.915 18.6312C93.3039 18.6312 94.1292 19.5935 94.1292 21.097V26.9907H96.0414V20.8965C96.0414 18.4909 94.6727 16.807 92.3175 16.807Z" fill="white"/>
<path d="M102.887 25.407L99.4652 17.0675H97.3517L101.901 27.933L101.881 27.9731C101.559 28.7949 101.196 29.0956 100.311 29.0956H97.9557V31H100.311C102.042 31 102.968 30.2182 103.612 28.5342L108 17.0675H106.047L102.887 25.407Z" fill="white"/>
</svg>
